# xmcd
#
# Track frame offsets: 
#        150
#        28329
#        70623
#        95285
#        129516
#        146759
#        168019
#        274142
#
# Disc length: 3932 seconds
#
# Revision: 0
# Processed by: cddbd v1.5.2PL0 Copyright (c) Steve Scherf et al.
# Submitted via: ExactAudioCopy v0.95b3
#
DISCID=6b0f5a08
DTITLE=Led Zeppelin  - Rumble In Sydney - 1972 Feb 27 Sydney, Australi
DTITLE=a - Disc 1
DYEAR=1900
DGENRE=
TTITLE0=Black Dog
TTITLE1=Stairway To Heaven
TTITLE2=Going To California
TTITLE3=That's The Way
TTITLE4=Tangerine
TTITLE5=Bron Y Aur Stomp
TTITLE6=Dazed And Confused
TTITLE7=What Is and What Should Never Be
EXTD=
EXTT0=
EXTT1=
EXTT2=
EXTT3=
EXTT4=
EXTT5=
EXTT6=
EXTT7=
PLAYORDER=
